<svg width="280" height="86" viewBox="0 0 280 86" fill="none" xmlns="http://www.w3.org/2000/svg"> 
<path d="M14.6936 85.4393C12.0483 85.4553 9.52635 84.7025 7.12778 83.181C4.72972 81.7448 2.92408 79.4943 1.71087 76.4296C1.27751 75.3228 0.971626 74.13 0.793226 72.8511C0.700158 71.5716 0.650013 70.3345 0.642793 69.1399L0.632735 67.4759C0.629125 66.8786 0.668438 66.3237 0.750675 65.8112C0.918244 65.2982 1.25802 65.0401 1.77002 65.037C1.94068 65.036 2.02653 65.1208 2.02756 65.2915C2.03065 65.8035 1.99108 66.3157 1.90884 66.8282C1.91194 67.3402 1.91503 67.8522 1.91813 68.3642C1.94237 72.3748 2.94225 75.4408 4.91778 77.5622C6.97812 79.5978 9.50159 80.6066 12.4882 80.5885C15.4748 80.5705 18.3709 79.6996 21.1766 77.976C23.9817 76.167 26.5709 73.9326 28.9442 71.2729C30.3007 69.814 31.8236 67.6287 33.5127 64.7172C35.2866 61.7197 37.1011 58.3807 38.9562 54.7001C40.8962 50.9336 42.8356 47.0818 44.7745 43.1447C46.7129 39.1222 48.567 35.271 50.3368 31.5909C52.106 27.8254 53.7075 24.5304 55.1411 21.7056C56.4904 19.0521 58.3124 16.9504 60.6071 15.4005C62.9018 13.8506 64.8579 12.7721 66.4756 12.165C65.8783 12.1686 64.5986 12.219 62.6365 12.3162C60.7597 12.4128 58.7549 12.5103 56.6221 12.6085C54.4894 12.7068 52.7832 12.8024 51.5038 12.8955C48.2622 13.0857 44.9793 13.4896 41.6549 14.107C38.3306 14.7244 35.3915 15.5529 32.8378 16.5924C30.284 17.6318 28.4574 18.9655 27.3579 20.5935C26.5966 21.7075 26.2203 22.9898 26.2291 24.4404C26.2466 27.3417 27.5392 29.4246 30.1069 30.6891C30.2786 30.8587 30.3645 30.9436 30.3645 30.9436C30.366 31.1996 30.1542 31.4568 29.7291 31.7154C29.3035 31.8887 28.8771 31.9339 28.4499 31.8511C27.7647 31.4286 26.9073 30.7511 25.8776 29.8187C24.9328 28.8004 24.0303 27.7391 23.1703 26.635C22.3956 25.5303 21.8779 24.5947 21.6173 23.8283C21.1829 22.5509 20.9634 21.5282 20.9588 20.7602C20.9464 18.7123 21.7043 17.0436 23.2325 15.7544C24.7603 14.3798 26.7594 13.3437 29.2299 12.6461C31.6998 11.8631 34.342 11.3352 37.1564 11.0621C39.9703 10.7038 42.6996 10.474 45.3444 10.3726C47.9892 10.2713 50.2502 10.215 52.1275 10.2036C56.4794 10.1773 60.362 10.1539 63.7753 10.1332C67.2734 10.0268 70.4731 9.96476 73.3744 9.94722C76.361 9.92917 79.2198 9.95456 81.951 10.0234C84.7674 10.0917 87.7122 10.2019 90.7851 10.354C93.0043 10.4259 94.5002 10.8436 95.2728 11.6069C96.1308 12.3697 96.5631 13.3058 96.5698 14.4151C96.5786 15.8658 96.1188 17.4472 95.1904 19.1595C94.2621 20.8718 93.4183 22.4556 92.6591 23.9109C92.3219 24.5956 91.7703 25.111 91.0044 25.457C90.238 25.7176 89.9378 25.4634 90.1038 24.6944C90.2698 23.9254 90.4356 23.1137 90.6011 22.2593C90.7661 21.3196 90.846 20.4231 90.8408 19.5698C90.8316 18.0339 90.5246 16.6704 89.9201 15.4793C89.315 14.203 88.2856 13.3132 86.8319 12.8099C85.9765 12.4738 84.9513 12.2666 83.7561 12.1885C82.5604 12.0251 81.2799 11.9475 79.9146 11.9557C77.3547 11.9712 74.7963 12.2427 72.2394 12.7701C69.6825 13.2976 67.6821 14.1204 66.2382 15.2385C64.4545 16.6146 62.6333 18.8443 60.7745 21.9276C59.0011 25.0104 57.3144 28.306 55.7142 31.8144C54.114 35.3228 52.682 38.4035 51.418 41.0565C51.3337 41.2277 51.2926 41.4839 51.2946 41.8253C51.2972 42.2519 51.6825 42.4629 52.4505 42.4583C53.6451 42.4511 55.3091 42.441 57.4424 42.4281C59.661 42.4147 61.9652 42.4434 64.355 42.5143C66.7443 42.4999 68.7923 42.4875 70.4989 42.4772C72.3762 42.4659 73.8703 42.5848 74.9812 42.8341C76.0915 42.9981 76.6495 43.5494 76.6552 44.488C76.6573 44.8294 76.448 45.5133 76.0276 46.5399C75.4385 47.9088 74.7631 49.1075 74.0013 50.1362C73.3243 51.0789 72.7756 52.0636 72.3551 53.0902C72.2718 53.432 71.8896 53.733 71.2085 53.9931C70.5274 54.2532 70.2712 54.2121 70.4398 53.8698C70.7765 53.0997 71.1121 52.159 71.4467 51.0476C71.8662 49.8504 72.0733 48.8251 72.0682 47.9718C72.0599 46.6065 71.4585 45.9275 70.2638 45.9347L50.2962 46.0554C49.5282 46.06 48.9329 46.405 48.5104 47.0902C46.0657 52.0544 43.4097 57.3612 40.5425 63.0106C37.7606 68.6596 34.5044 73.5007 30.7741 77.5339C28.6547 79.8508 26.1914 81.743 23.3843 83.2107C20.5771 84.6784 17.6802 85.4212 14.6936 85.4393ZM92.8771 80.4866C92.0237 80.4918 91.2974 80.3255 90.698 79.9878C90.0986 79.6501 89.7961 79.0119 89.7904 78.0733C89.7832 76.8786 90.0736 75.5115 90.6616 73.9719C91.2497 72.4323 91.9233 70.9349 92.6825 69.4796C93.4412 67.939 94.1164 66.6976 94.7081 65.7553C91.7405 68.9306 88.644 71.9361 85.4184 74.7716C83.8053 76.1467 82.0211 77.4375 80.0657 78.644C78.1103 79.8505 76.0233 80.4605 73.8046 80.4739C72.9513 80.4791 72.3524 80.2267 72.008 79.7168C71.6631 79.1215 71.4883 78.4399 71.4837 77.6719C71.4811 77.2452 71.5219 76.9463 71.6062 76.7751C72.0128 73.4446 73.0585 69.9822 74.7435 66.388C76.4285 62.7937 78.4987 59.4105 80.9543 56.2383C83.4098 53.066 85.9116 50.4909 88.4597 48.5128C91.3476 46.2766 94.5408 45.1479 98.0394 45.1268L112.759 45.0378C113.186 45.0352 113.4 45.2046 113.402 45.5459C113.406 46.2286 113.024 46.5722 112.256 46.5769C111.403 46.582 110.553 47.1419 109.707 48.2563C108.859 49.2855 108.225 50.1427 107.802 50.8279C107.21 51.7701 106.281 53.3545 105.015 55.5808C103.748 57.8072 102.44 60.2471 101.091 62.9007C99.8264 65.4684 98.7315 67.8644 97.8063 70.0887C96.8811 72.313 96.4215 73.9371 96.4277 74.9611C96.435 76.1557 97.0359 76.7494 98.2305 76.7422C99.5105 76.7345 100.958 76.1284 102.572 74.9239C104.186 73.7195 105.798 72.2591 107.409 70.5426C109.105 68.7403 110.63 66.9818 111.985 65.2669C113.425 63.4661 114.569 62.0512 115.416 61.0221C115.931 61.531 115.893 62.2565 115.301 63.1988C114.794 64.0552 114.329 64.7407 113.905 65.2553C112.212 67.4842 110.263 69.8 108.059 72.2027C105.855 74.5201 103.434 76.4974 100.799 78.1347C98.2483 79.6862 95.6077 80.4701 92.8771 80.4866ZM79.0262 76.0903C80.0502 76.0841 81.4538 75.3503 83.237 73.8888C85.105 72.3415 87.099 70.452 89.2189 68.2205C91.3382 65.9037 93.3291 63.5023 95.1914 61.0163C97.0532 58.445 98.5753 56.1318 99.7576 54.0766C101.025 51.9355 101.655 50.3104 101.648 49.2011C101.642 48.2624 101.34 47.6242 100.741 47.2865C100.226 46.9483 99.5428 46.7817 98.6895 46.7869C97.3242 46.7951 95.834 47.3162 94.2188 48.3499C92.6886 49.2979 91.4569 50.244 90.5239 51.1883C89.5056 52.1332 88.2773 53.6339 86.8391 55.6907C85.4856 57.6616 84.1335 59.8458 82.7826 62.2433C81.4317 64.6409 80.2937 66.9518 79.3685 69.1761C78.4432 71.4004 77.9847 73.1952 77.993 74.5605C77.9992 75.5845 78.3436 76.0944 79.0262 76.0903ZM113.87 81.7678C113.529 81.7698 113.527 81.4285 113.864 80.7438C114.286 79.9732 114.665 79.1176 115.001 78.1769C115.421 77.2357 115.842 76.2091 116.262 75.0972C117.103 73.0441 118.028 70.7345 119.036 68.1683C120.045 65.6022 121.011 63.1216 121.935 60.7266C122.859 58.2464 123.657 56.1508 124.329 54.4401C125.086 52.6435 125.591 51.4884 125.844 50.9748C124.657 52.262 123.217 53.8921 121.522 55.8651C119.912 57.7522 118.387 59.5961 116.947 61.3968C115.507 63.1975 114.407 64.6122 113.645 65.6408C113.391 65.9837 113.178 66.1557 113.008 66.1567C112.837 66.1577 112.751 65.9449 112.748 65.5183C112.744 64.8356 112.953 64.1943 113.376 63.5944C114.985 61.5367 116.763 59.2219 118.71 56.6501C120.743 54.0777 122.563 51.72 124.172 49.5769C125.78 47.3485 126.795 45.8917 127.217 45.2064C128.155 45.0301 129.519 44.7659 131.309 44.4137C133.184 44.061 134.461 43.584 135.14 42.9825C135.395 42.725 135.65 42.5954 135.906 42.5939C136.076 42.5928 136.163 42.763 136.165 43.1043C136.252 43.3598 136.168 43.659 135.914 44.0019C135.405 44.5169 134.644 45.6309 133.63 47.3437C132.702 49.056 131.647 51.0251 130.466 53.251C129.285 55.4768 128.146 57.6171 127.049 59.6717C127.894 58.3866 128.995 56.8866 130.35 55.1717C131.79 53.371 133.358 51.6548 135.055 50.0232C136.751 48.3062 138.449 46.8879 140.149 45.7683C141.934 44.6481 143.595 44.0834 145.131 44.0741C146.24 44.0674 147.18 44.3178 147.952 44.8251C148.722 45.2471 149.324 46.0542 149.758 47.2462C150.018 47.842 150.15 48.5239 150.155 49.2919C150.163 50.7425 149.788 52.1528 149.028 53.5228C148.353 54.8069 147.847 55.7913 147.51 56.476C147.426 56.7325 147.129 56.9903 146.619 57.2494C146.108 57.4232 145.894 57.3391 145.977 56.9973C146.06 56.5701 146.1 56.1432 146.097 55.7165C146.18 55.2893 146.22 54.8198 146.217 54.3078C146.208 52.8571 145.901 51.5363 145.297 50.3453C144.778 49.1537 143.793 48.5623 142.342 48.5711C140.977 48.5793 139.318 49.4427 137.366 51.1612C135.413 52.8797 133.463 54.8542 131.513 57.0847C129.056 60.0009 127.11 62.7861 125.676 65.4401C124.241 68.0088 123.061 70.5334 122.137 73.0137C121.634 74.3821 121.13 75.7505 120.626 77.1189C120.122 78.4019 119.744 79.4282 119.493 80.1978C118.384 80.2898 117.276 80.5525 116.17 80.9859C115.063 81.5046 114.297 81.7652 113.87 81.7678ZM174.294 30.7136C173.099 30.7209 172.243 30.342 171.727 29.5771C171.383 29.1525 171.209 28.5989 171.205 27.9163C171.197 26.551 171.83 25.4378 173.105 24.5767C174.04 24.0591 174.892 23.7979 175.66 23.7933C176.94 23.7855 177.838 24.1641 178.355 24.929C178.699 25.3536 178.873 25.9072 178.877 26.5899C178.885 27.9552 178.209 29.0686 176.849 29.9302C176.084 30.4468 175.232 30.708 174.294 30.7136ZM152.32 80.1274C151.467 80.1325 150.74 79.9662 150.141 79.6285C149.627 79.2903 149.367 78.6518 149.361 77.7132C149.354 76.5186 149.644 75.1088 150.232 73.4839C150.905 71.8584 151.62 70.2327 152.378 68.6068C153.222 66.9803 153.854 65.6538 154.274 64.6273C154.864 63.429 155.58 61.8886 156.422 60.0062C157.349 58.0379 158.191 56.1981 158.949 54.4868C159.792 52.6897 160.381 51.4488 160.719 50.7641C159.532 52.0513 158.091 53.6813 156.396 55.6543C154.786 57.5414 153.261 59.3853 151.821 61.186C150.382 62.9868 149.281 64.4014 148.519 65.4301C148.265 65.7729 148.053 65.9449 147.882 65.9459C147.712 65.947 147.625 65.7341 147.622 65.3075C147.618 64.6248 147.828 63.9835 148.251 63.3836C149.86 61.3259 151.638 59.0111 153.585 56.4393C155.617 53.8669 157.438 51.5092 159.046 49.3661C160.654 47.1377 161.669 45.6809 162.092 44.9956C163.029 44.8193 164.393 44.5551 166.183 44.2029C168.058 43.8502 169.335 43.3732 170.015 42.7717C170.269 42.5142 170.524 42.3846 170.78 42.3831C170.951 42.3821 171.037 42.5522 171.039 42.8935C171.126 43.149 171.043 43.4482 170.789 43.7911C170.28 44.3915 169.393 45.8475 168.127 48.1592C166.861 50.4709 165.511 53.0391 164.078 55.8638C162.729 58.6027 161.464 61.0851 160.282 63.3109C159.102 65.6221 158.091 67.8469 157.251 69.9854C156.41 72.1238 155.993 73.6624 155.999 74.601C156.006 75.7957 156.607 76.3894 157.801 76.3822C158.911 76.3755 160.315 75.6843 162.013 74.3087C163.797 72.9325 165.579 71.3004 167.359 69.4123C169.14 67.4388 170.707 65.6373 172.063 64.0077C172.486 63.4932 172.995 62.8927 173.588 62.2065C174.266 61.4344 174.69 60.9625 174.86 60.7908C175.031 60.9604 175.118 61.2585 175.121 61.6852C175.039 62.283 174.829 62.8817 174.492 63.481C174.154 63.9951 173.815 64.4665 173.476 64.8952C171.698 67.1247 169.749 69.4405 167.63 71.8427C165.511 74.1595 163.176 76.1363 160.626 77.7731C158.075 79.3246 155.307 80.1093 152.32 80.1274ZM190 79.8996C189.147 79.9048 188.421 79.7385 187.821 79.4008C187.222 79.0631 186.919 78.4249 186.914 77.4862C186.906 76.2916 187.197 74.9245 187.785 73.3849C188.373 71.8453 189.047 70.3479 189.806 68.8926C190.564 67.352 191.24 66.1105 191.831 65.1683C188.864 68.3436 185.767 71.349 182.542 74.1846C180.929 75.5597 179.144 76.8505 177.189 78.057C175.234 79.2635 173.146 79.8735 170.928 79.8869C170.075 79.892 169.476 79.6397 169.131 79.1297C168.786 78.5345 168.612 77.8528 168.607 77.0849C168.604 76.6582 168.645 76.3593 168.729 76.1881C169.136 72.8576 170.182 69.3952 171.867 65.801C173.552 62.2067 175.622 58.8235 178.078 55.6512C180.533 52.479 183.035 49.9038 185.583 47.9257C187.537 46.4632 189.409 45.5559 191.199 45.2037C192.988 44.7662 194.949 44.5411 197.083 44.5282L201.307 44.5026C202.658 42.1904 204.05 39.622 205.484 36.7972C207.002 33.8867 208.479 31.019 209.912 28.1943C211.431 25.3691 212.824 22.8859 214.091 20.7449C217.554 14.7505 221.365 9.94876 225.524 6.33955C229.769 2.72983 234.494 0.909235 239.7 0.877773C240.809 0.871068 241.835 1.20621 242.778 1.88319C243.72 2.47484 244.152 3.41091 244.075 4.6914L243.847 9.30087C243.847 9.3862 243.763 9.51471 243.593 9.6864C243.423 9.77277 243.295 9.8162 243.21 9.81672C243.124 9.81724 242.996 9.73268 242.824 9.56305C242.559 8.02862 241.784 6.88129 240.499 6.12104C239.214 5.27546 237.633 4.85834 235.756 4.86969C235.158 4.8733 234.476 4.92009 233.708 5.01006C233.026 5.09952 232.345 5.27431 231.664 5.53443C229.279 6.40219 227.029 8.16516 224.911 10.8233C222.794 13.3962 220.51 16.8234 218.061 21.1049C217.218 22.7314 216.122 24.8714 214.772 27.5249C213.422 30.0931 211.988 32.8752 210.471 35.8711C209.038 38.8665 207.648 41.7763 206.299 44.6005C205.036 47.4241 203.941 49.8201 203.015 51.7884C202.594 52.815 201.878 54.398 200.867 56.5375C199.856 58.5917 198.76 60.8597 197.58 63.3415C196.485 65.7375 195.518 67.962 194.677 70.0152C193.921 72.0678 193.546 73.5207 193.551 74.374C193.558 75.5687 194.074 76.1629 195.098 76.1567C196.122 76.1505 197.483 75.545 199.183 74.34C200.882 73.0497 202.622 71.5032 204.403 69.7004C206.269 67.8117 207.922 66.0097 209.362 64.2943C210.888 62.5784 211.947 61.292 212.539 60.435C212.797 60.6895 212.926 60.9874 212.928 61.3287C212.932 61.926 212.68 62.5249 212.171 63.1253C211.748 63.7252 211.367 64.2395 211.029 64.6682C209.505 66.7255 207.598 68.9557 205.309 71.3589C203.104 73.6763 200.684 75.6963 198.049 77.4189C195.414 79.0562 192.731 79.8831 190 79.8996ZM176.149 75.5032C177.173 75.4971 178.577 74.7632 180.36 73.3018C182.228 71.7544 184.222 69.865 186.342 67.6335C188.461 65.3166 190.452 62.9152 192.315 60.4293C194.176 57.858 195.699 55.5447 196.881 53.4895C198.148 51.3485 198.778 49.7233 198.771 48.614C198.766 47.6754 198.463 47.0372 197.864 46.6995C197.35 46.3612 196.666 46.1947 195.813 46.1999C194.447 46.2081 192.957 46.7291 191.342 47.7629C189.812 48.7108 188.58 49.657 187.647 50.6013C186.629 51.5461 185.401 53.0469 183.962 55.1036C182.609 57.0745 181.257 59.2587 179.906 61.6563C178.555 64.0538 177.417 66.3648 176.492 68.5891C175.566 70.8133 175.108 72.6082 175.116 73.9735C175.122 74.9974 175.467 75.5074 176.149 75.5032ZM217.517 80.3733C214.018 80.3945 211.582 79.7265 210.208 78.3694C208.835 77.0124 208.142 75.3525 208.13 73.3899C208.115 70.9153 208.739 68.2661 210.002 65.4425C211.351 62.6183 212.616 60.2212 213.799 58.2514C215.152 56.1952 216.974 54.0508 219.264 51.8182C221.555 49.5857 224.061 47.6932 226.782 46.1407C229.503 44.5882 232.144 43.8042 234.704 43.7888C236.922 43.7753 238.462 44.3207 239.322 45.4249C240.181 46.4437 240.615 47.6784 240.624 49.1291C240.64 51.7744 239.843 53.9552 238.232 55.6717C236.706 57.3876 234.795 58.8072 232.497 59.9304C230.2 60.9683 227.986 61.835 225.857 62.5306C224.579 62.8796 223.088 63.23 221.383 63.5816C219.679 63.9333 218.058 64.1137 216.522 64.123C215.934 65.6626 215.474 67.1587 215.142 68.6114C214.809 70.0642 214.646 71.3878 214.654 72.5825C214.662 74.0331 215.011 75.2257 215.699 76.1602C216.473 77.0942 217.713 77.5561 219.42 77.5458C220.102 77.5416 220.912 77.4514 221.85 77.2751C222.788 77.0987 223.81 76.8365 224.917 76.4885C227.472 75.6197 229.981 74.2392 232.444 72.3469C234.908 70.4547 237.157 68.4357 239.192 66.29C241.312 64.0585 242.922 62.2141 244.023 60.7567C244.28 61.0112 244.41 61.3091 244.412 61.6504C244.415 62.0771 244.12 62.7615 243.528 63.7038C241.836 66.1034 239.633 68.5914 236.917 71.1679C234.202 73.7443 231.186 75.9386 227.869 77.7507C224.551 79.4774 221.101 80.3516 217.517 80.3733ZM217.531 61.5569C218.641 61.6355 219.878 61.628 221.243 61.5344C222.692 61.355 224.099 61.0478 225.461 60.6129C228.954 59.5678 231.461 57.9313 232.984 55.7034C234.591 53.3896 235.389 51.3368 235.379 49.5448C235.372 48.5208 235.154 47.6688 234.723 46.9887C234.292 46.3086 233.608 45.9714 232.669 45.9771C230.194 45.9921 227.981 46.9441 226.03 48.8333C224.078 50.6371 222.384 52.738 220.948 55.1361C219.512 57.5342 218.373 59.6744 217.531 61.5569ZM252.589 79.9053C251.395 79.9125 250.368 79.4921 249.51 78.6439C248.651 77.7957 248.216 76.305 248.203 74.1717C248.191 72.2944 248.306 70.075 248.546 67.5135C248.872 64.9515 249.326 62.3461 249.907 59.6972C250.488 56.9629 251.156 54.5695 251.912 52.5169C250.474 54.659 248.866 56.8874 247.088 59.2022C245.31 61.4316 243.828 63.318 242.642 64.8612C242.388 65.204 242.176 65.376 242.005 65.377C241.835 65.3781 241.748 65.1652 241.746 64.7386C241.741 64.0559 241.951 63.4146 242.374 62.8147C244.151 60.3293 246.139 57.5012 248.339 54.3305C250.624 51.1593 252.569 48.2889 254.175 45.7191C255.112 45.5428 256.22 45.2801 257.498 44.931C258.861 44.5814 259.84 44.1062 260.434 43.5052C260.859 43.2467 261.114 43.1171 261.199 43.1166C261.455 43.1151 261.584 43.2849 261.586 43.6263C261.588 43.8823 261.462 44.1817 261.208 44.5246C260.447 45.6385 259.603 47.3503 258.679 49.66C257.839 51.9691 256.959 54.5344 256.037 57.3561C255.201 60.1772 254.492 62.9548 253.912 65.6891C253.416 68.3374 253.173 70.6003 253.185 72.4776C253.193 73.8429 253.412 74.8229 253.842 75.4177C254.272 75.9271 254.828 76.1797 255.511 76.1756C256.45 76.1699 257.556 75.6939 258.83 74.7475C260.19 73.8006 261.336 72.8123 262.269 71.7827C263.455 70.4955 264.768 68.7808 266.206 66.6388C267.729 64.4962 269.123 62.2264 270.388 59.8294C271.739 57.4318 272.75 55.2497 273.421 53.2829C273.925 51.9145 274.259 50.7605 274.424 49.8208C274.589 48.7958 274.669 47.9846 274.665 47.3873C274.659 46.3633 274.527 45.6388 274.268 45.2137C274.01 44.7885 273.795 44.5338 273.624 44.4495C273.111 44.282 272.853 44.0702 272.852 43.8142C272.851 43.6435 273.021 43.5145 273.361 43.4271C273.702 43.2544 274.043 43.2523 274.385 43.4209C275.497 43.7555 276.609 44.2608 277.723 44.9368C278.836 45.5274 279.397 46.7187 279.408 48.5106C279.411 48.9373 279.371 49.4496 279.289 50.0474C279.207 50.5599 279.04 51.1583 278.788 51.8425C278.285 53.2109 277.23 55.1373 275.623 57.6217C274.102 60.1056 272.326 62.719 270.294 65.462C268.263 68.205 266.23 70.692 264.195 72.923C262.161 75.154 260.379 76.7435 258.848 77.6914C257.828 78.295 256.764 78.8134 255.658 79.2468C254.551 79.6801 253.528 79.8996 252.589 79.9053Z" fill="white"/>
</svg>
